<svg xmlns="http://www.w3.org/2000/svg" viewBox="0 0 48 48" fill="none" aria-label="server icon">
    <rect x="8" y="12" width="32" height="8" rx="1" fill="#37474F"></rect>
    <rect x="10" y="14" width="28" height="4" rx="0.5" fill="#fff" opacity="0.15"></rect>
    <circle cx="14" cy="16" r="1" fill="#4CAF50"></circle>
    <circle cx="18" cy="16" r="1" fill="#4CAF50"></circle>
    <circle cx="22" cy="16" r="1" fill="#FFC107"></circle>
    <circle cx="35" cy="16" r="1.5" fill="#4CAF50"></circle>
    <rect x="8" y="22" width="32" height="8" rx="1" fill="#37474F"></rect>
    <rect x="10" y="24" width="28" height="4" rx="0.5" fill="#fff" opacity="0.15"></rect>
    <circle cx="14" cy="26" r="1" fill="#4CAF50"></circle>
    <circle cx="18" cy="26" r="1" fill="#4CAF50"></circle>
    <circle cx="22" cy="26" r="1" fill="#FFC107"></circle>
    <circle cx="35" cy="26" r="1.5" fill="#4CAF50"></circle>
    <rect x="8" y="32" width="32" height="8" rx="1" fill="#37474F"></rect>
    <rect x="10" y="34" width="28" height="4" rx="0.5" fill="#fff" opacity="0.15"></rect>
    <circle cx="14" cy="36" r="1" fill="#4CAF50"></circle>
    <circle cx="18" cy="36" r="1" fill="#4CAF50"></circle>
    <circle cx="22" cy="36" r="1" fill="#FFC107"></circle>
    <circle cx="35" cy="36" r="1.5" fill="#4CAF50"></circle>
</svg>